<svg width="364" height="471" viewBox="0 0 364 471" fill="none" xmlns="http://www.w3.org/2000/svg">
<g clip-path="url(#clip0)">
<path d="M364 303.993L298.825 256.548C298.825 256.548 261.491 193.288 255.163 152.802C248.836 112.315 220.361 40.199 220.361 40.199V2.24301C220.361 2.24301 187.457 -10.409 184.926 24.384C182.395 59.1771 191.886 104.092 191.886 104.092C191.886 104.092 201.378 161.026 179.864 175.576L101.4 303.993C101.4 303.993 176.7 372.947 235.547 381.803L364 471V303.993Z" fill="#FFB8B8"/>
<path d="M25.1511 122.121H23.0026C3.64551 122.121 -7.23539 144.968 5.48392 159.555C9.57773 164.25 15.8001 167.501 25.1511 167.668V122.121Z" fill="#FFB8B8"/>
<path d="M25.1511 167.668H23.0026C3.64551 167.668 -7.23539 190.515 5.48392 205.103C9.57773 209.798 15.8001 213.048 25.1511 213.215V167.668Z" fill="#FFB8B8"/>
<path d="M25.1511 213.215H23.0026C3.64551 213.215 -7.23539 236.062 5.48392 250.65C9.57773 255.345 15.8001 258.596 25.1511 258.763V213.215Z" fill="#FFB8B8"/>
<path d="M25.1511 258.763H23.0026C3.64551 258.763 -7.23539 281.609 5.48392 296.197C9.57773 300.892 15.8001 304.143 25.1511 304.31V258.763Z" fill="#FFB8B8"/>
<path d="M193.152 111.246H191.269V59.6706C191.269 55.7506 190.496 51.869 188.996 48.2474C187.495 44.6258 185.296 41.3352 182.523 38.5633C179.751 35.7915 176.459 33.5927 172.837 32.0926C169.214 30.5925 165.331 29.8204 161.41 29.8204H52.1123C48.1913 29.8204 44.3086 30.5925 40.6861 32.0926C37.0635 33.5927 33.7719 35.7915 30.9993 38.5633C28.2267 41.3352 26.0274 44.6258 24.5269 48.2474C23.0263 51.869 22.254 55.7506 22.254 59.6706V342.615C22.254 346.535 23.0263 350.417 24.5269 354.038C26.0274 357.66 28.2267 360.95 30.9993 363.722C33.7719 366.494 37.0635 368.693 40.6861 370.193C44.3086 371.693 48.1913 372.465 52.1123 372.465H161.41C165.331 372.465 169.214 371.693 172.837 370.193C176.459 368.693 179.751 366.494 182.523 363.722C185.296 360.95 187.495 357.66 188.996 354.038C190.496 350.417 191.269 346.535 191.269 342.615V147.958H193.152V111.246Z" fill="#3F3D56"/>
<path d="M184.913 59.8792V342.405C184.908 345.709 184.171 348.972 182.756 351.958C181.34 354.944 179.28 357.579 176.725 359.675C176.16 360.138 175.571 360.571 174.96 360.972C171.304 363.408 167.007 364.705 162.614 364.698H52.7905C51.0102 364.701 49.2361 364.489 47.5069 364.065C42.6537 362.882 38.3385 360.104 35.2532 356.176C32.1678 352.249 30.491 347.399 30.4916 342.405V59.8792C30.4922 53.967 32.8417 48.297 37.0234 44.1164C41.2051 39.9358 46.8766 37.587 52.7905 37.5864H66.1166C65.4605 39.1944 65.21 40.9389 65.3873 42.6664C65.5645 44.394 66.1641 46.0514 67.1331 47.4926C68.1021 48.9339 69.4109 50.1147 70.944 50.9311C72.4771 51.7475 74.1875 52.1744 75.9246 52.1742H138.537C140.274 52.1723 141.983 51.7441 143.515 50.9273C145.048 50.1105 146.356 48.93 147.325 47.4895C148.294 46.049 148.894 44.3927 149.073 42.666C149.252 40.9392 149.005 39.195 148.352 37.5864H162.614C168.528 37.587 174.2 39.9358 178.381 44.1164C182.563 48.297 184.913 53.967 184.913 59.8792Z" fill="#5C00C4"/>
<path d="M84.6552 250.491C84.6552 250.491 95.4357 280.428 87.0508 297.194C78.666 313.959 100.227 333.119 100.227 333.119C100.227 333.119 156.525 304.379 149.338 290.008C142.151 275.638 130.173 256.478 132.568 244.503L84.6552 250.491Z" fill="#FFB8B8"/>
<path d="M105.617 261.867C126.787 261.867 143.948 244.71 143.948 223.547C143.948 202.383 126.787 185.226 105.617 185.226C84.4478 185.226 67.2866 202.383 67.2866 223.547C67.2866 244.71 84.4478 261.867 105.617 261.867Z" fill="#FFB8B8"/>
<path d="M180.142 358.012C179.134 359.298 177.989 360.469 176.725 361.504C176.16 361.967 175.571 362.4 174.96 362.801C171.422 365.154 167.183 365.895 162.614 365.895H65.6104L67.2873 319.348L78.0697 295.398C80.4903 297.296 83.0809 298.966 85.8085 300.389C86.4539 300.737 87.1373 301.085 87.8523 301.426C97.9513 306.304 114.46 310.593 130.463 298.649C135.5 294.891 140.486 289.521 145.213 282.056L175.092 298.991L176.662 317.336L180.142 358.012Z" fill="white"/>
<path d="M90.143 277.476L88.6433 293.145L87.8524 301.426L86.669 313.756L81.6132 366.527H52.7905C51.0102 366.53 49.236 366.318 47.5068 365.895L36.1423 313.357L36.4713 313.142L90.143 277.476Z" fill="#2F2E41"/>
<path d="M184.913 288.243V344.234C184.908 347.539 184.171 350.801 182.756 353.787C181.34 356.773 179.28 359.408 176.725 361.504C176.16 361.967 175.571 362.4 174.96 362.801C171.304 365.237 167.007 366.534 162.614 366.527H124.047C124.888 348.833 126.375 331.563 128.116 316.52C128.862 310.112 129.653 304.108 130.463 298.649C133.07 281.05 135.867 269.1 137.873 267.487L151.136 276.236L184.913 288.243Z" fill="#2F2E41"/>
<path d="M63.6931 356.469L62.3137 366.527H52.7905C51.0102 366.53 49.2361 366.318 47.5069 365.895C42.6537 364.711 38.3385 361.933 35.2532 358.006C32.1678 354.078 30.491 349.228 30.4916 344.234V342.21L34.9463 313.357L36.4713 313.142L43.3305 312.161L63.6931 356.469Z" fill="#2F2E41"/>
<path d="M184.913 295.543V344.234C184.908 347.539 184.171 350.801 182.756 353.787C181.34 356.773 179.281 359.408 176.725 361.504C176.16 361.967 175.571 362.4 174.96 362.801L169.1 337.307L176.662 317.336L184.913 295.543Z" fill="#2F2E41"/>
<path d="M142.17 188.888C136.373 179.478 127.3 172.544 116.697 169.42L108.909 175.649L111.937 168.384C109.391 167.996 106.814 167.847 104.24 167.939L97.2328 176.946L100.133 168.248C88.0252 169.791 76.5145 176.384 69.5372 186.442C60.6188 199.298 59.114 217.176 67.8855 230.133C70.2934 222.735 73.2159 215.794 75.6239 208.396C76.1794 208.633 78.285 208.618 81.3291 208.424L84.2587 201.59L85.0771 208.135C94.1571 207.344 107.625 205.607 116.233 204.017L115.396 198.996L120.404 203.168C123.042 202.561 124.608 202.011 124.478 201.59C130.88 211.908 137.224 218.499 143.626 228.817C146.056 214.263 150.346 202.165 142.17 188.888Z" fill="#2F2E41"/>
<path d="M140.047 227.531C141.48 227.531 142.642 225.208 142.642 222.343C142.642 219.477 141.48 217.155 140.047 217.155C138.614 217.155 137.452 219.477 137.452 222.343C137.452 225.208 138.614 227.531 140.047 227.531Z" fill="#FFB8B8"/>
<path d="M224.474 357.764C250.859 357.764 272.248 309.899 272.248 250.855C272.248 191.811 250.859 143.945 224.474 143.945C198.089 143.945 176.7 191.811 176.7 250.855C176.7 309.899 198.089 357.764 224.474 357.764Z" fill="#FFB8B8"/>
<path opacity="0.2" d="M52.6518 117.376C50.1488 117.376 47.702 116.634 45.6209 115.244C43.5397 113.854 41.9176 111.878 40.9598 109.566C40.0019 107.254 39.7513 104.71 40.2396 102.256C40.7279 99.8017 41.9332 97.5474 43.7031 95.778C45.473 94.0085 47.728 92.8036 50.1829 92.3154C52.6378 91.8272 55.1824 92.0777 57.4949 93.0354C59.8073 93.993 61.7838 95.6146 63.1744 97.6952C64.565 99.7758 65.3073 102.222 65.3073 104.724C65.3034 108.079 63.9689 111.294 61.5963 113.666C59.2238 116.038 56.0071 117.372 52.6518 117.376ZM52.6518 93.3375C50.3991 93.3375 48.197 94.0053 46.324 95.2565C44.4509 96.5077 42.991 98.2861 42.129 100.367C41.2669 102.447 41.0413 104.737 41.4808 106.946C41.9203 109.155 43.0051 111.184 44.598 112.776C46.1909 114.368 48.2204 115.453 50.4298 115.892C52.6392 116.332 54.9293 116.106 57.0106 115.244C59.0918 114.382 60.8707 112.923 62.1222 111.05C63.3737 109.178 64.0417 106.976 64.0417 104.724C64.0383 101.705 62.8372 98.8111 60.702 96.6764C58.5667 94.5416 55.6716 93.3409 52.6518 93.3375Z" fill="black"/>
<path opacity="0.2" d="M47.5897 103.459C48.6381 103.459 49.488 102.609 49.488 101.561C49.488 100.513 48.6381 99.6635 47.5897 99.6635C46.5413 99.6635 45.6913 100.513 45.6913 101.561C45.6913 102.609 46.5413 103.459 47.5897 103.459Z" fill="black"/>
<path opacity="0.2" d="M57.0812 103.459C58.1297 103.459 58.9796 102.609 58.9796 101.561C58.9796 100.513 58.1297 99.6635 57.0812 99.6635C56.0328 99.6635 55.1829 100.513 55.1829 101.561C55.1829 102.609 56.0328 103.459 57.0812 103.459Z" fill="black"/>
<path opacity="0.2" d="M57.0812 109.152H47.5897C47.4219 109.152 47.2609 109.086 47.1422 108.967C47.0236 108.849 46.9569 108.688 46.9569 108.52C46.9569 108.352 47.0236 108.191 47.1422 108.073C47.2609 107.954 47.4219 107.887 47.5897 107.887H57.0812C57.2491 107.887 57.41 107.954 57.5287 108.073C57.6473 108.191 57.714 108.352 57.714 108.52C57.714 108.688 57.6473 108.849 57.5287 108.967C57.41 109.086 57.2491 109.152 57.0812 109.152Z" fill="black"/>
<path opacity="0.2" d="M162.754 117.376C160.251 117.376 157.804 116.634 155.723 115.244C153.642 113.854 152.02 111.878 151.062 109.566C150.104 107.254 149.853 104.71 150.342 102.256C150.83 99.8017 152.035 97.5474 153.805 95.778C155.575 94.0085 157.83 92.8036 160.285 92.3154C162.74 91.8272 165.284 92.0777 167.597 93.0354C169.909 93.993 171.886 95.6146 173.277 97.6952C174.667 99.7758 175.409 102.222 175.409 104.724C175.406 108.079 174.071 111.295 171.698 113.666C169.326 116.038 166.109 117.373 162.754 117.376ZM162.754 93.3375C160.501 93.3375 158.299 94.0053 156.426 95.2565C154.553 96.5077 153.093 98.2861 152.231 100.367C151.369 102.447 151.143 104.737 151.583 106.946C152.022 109.155 153.107 111.184 154.7 112.776C156.293 114.368 158.322 115.453 160.532 115.892C162.741 116.332 165.031 116.106 167.113 115.244C169.194 114.382 170.973 112.923 172.224 111.05C173.476 109.178 174.144 106.976 174.144 104.724C174.14 101.705 172.939 98.8111 170.804 96.6764C168.669 94.5417 165.774 93.3409 162.754 93.3375Z" fill="black"/>
<path opacity="0.2" d="M157.692 103.459C158.74 103.459 159.59 102.609 159.59 101.561C159.59 100.513 158.74 99.6635 157.692 99.6635C156.643 99.6635 155.794 100.513 155.794 101.561C155.794 102.609 156.643 103.459 157.692 103.459Z" fill="black"/>
<path opacity="0.2" d="M167.183 103.459C168.232 103.459 169.082 102.609 169.082 101.561C169.082 100.513 168.232 99.6635 167.183 99.6635C166.135 99.6635 165.285 100.513 165.285 101.561C165.285 102.609 166.135 103.459 167.183 103.459Z" fill="black"/>
<path opacity="0.2" d="M167.183 110.418C167.072 110.418 166.963 110.389 166.868 110.333C165.543 109.494 164.006 109.048 162.438 109.048C160.869 109.048 159.332 109.494 158.008 110.333C157.936 110.375 157.856 110.402 157.774 110.413C157.691 110.424 157.607 110.418 157.527 110.397C157.446 110.375 157.371 110.338 157.305 110.287C157.239 110.237 157.184 110.174 157.142 110.101C157.101 110.029 157.074 109.95 157.063 109.867C157.052 109.785 157.058 109.701 157.08 109.621C157.101 109.54 157.139 109.465 157.19 109.399C157.241 109.333 157.304 109.278 157.376 109.237C158.894 108.29 160.648 107.788 162.438 107.788C164.227 107.788 165.981 108.29 167.499 109.237C167.62 109.306 167.715 109.414 167.768 109.543C167.821 109.671 167.831 109.814 167.795 109.949C167.759 110.083 167.679 110.202 167.568 110.287C167.458 110.372 167.322 110.418 167.183 110.418Z" fill="black"/>
<path d="M108.336 130.412C103.254 130.412 98.2861 128.905 94.0607 126.083C89.8353 123.26 86.542 119.248 84.5972 114.554C82.6525 109.861 82.1437 104.696 83.1351 99.7129C84.1265 94.7301 86.5736 90.153 90.1671 86.5606C93.7605 82.9681 98.3388 80.5216 103.323 79.5305C108.307 78.5393 113.473 79.048 118.169 80.9922C122.864 82.9364 126.876 86.2289 129.7 90.4531C132.523 94.6774 134.03 99.6438 134.03 104.724C134.022 111.535 131.313 118.064 126.496 122.879C121.679 127.695 115.148 130.404 108.336 130.412ZM108.336 81.6056C103.762 81.6056 99.2911 82.9615 95.4882 85.5018C91.6853 88.0421 88.7213 91.6528 86.9711 95.8772C85.2208 100.102 84.7629 104.75 85.6551 109.235C86.5474 113.719 88.7498 117.838 91.9839 121.072C95.218 124.305 99.3385 126.507 103.824 127.399C108.31 128.291 112.96 127.833 117.185 126.083C121.411 124.333 125.022 121.37 127.563 117.568C130.104 113.766 131.461 109.297 131.461 104.724C131.454 98.595 129.015 92.7186 124.68 88.3846C120.345 84.0505 114.467 81.6125 108.336 81.6056V81.6056Z" fill="white"/>
<path d="M98.0579 102.156C100.187 102.156 101.912 100.43 101.912 98.3025C101.912 96.1744 100.187 94.4493 98.0579 94.4493C95.9294 94.4493 94.2038 96.1744 94.2038 98.3025C94.2038 100.43 95.9294 102.156 98.0579 102.156Z" fill="white"/>
<path d="M117.329 102.156C119.457 102.156 121.183 100.43 121.183 98.3025C121.183 96.1744 119.457 94.4493 117.329 94.4493C115.2 94.4493 113.475 96.1744 113.475 98.3025C113.475 100.43 115.2 102.156 117.329 102.156Z" fill="white"/>
<path d="M108.349 117.265C104.894 117.265 101.23 116.013 97.3591 113.508C97.0737 113.322 96.8737 113.031 96.8029 112.698C96.7321 112.366 96.7963 112.018 96.9815 111.733C97.1667 111.447 97.4577 111.247 97.7905 111.176C98.1234 111.105 98.4709 111.168 98.7567 111.353C105.566 115.766 111.368 115.798 116.498 111.451C116.758 111.231 117.095 111.124 117.434 111.152C117.773 111.18 118.087 111.342 118.307 111.601C118.527 111.861 118.635 112.197 118.608 112.536C118.58 112.875 118.419 113.19 118.159 113.41C115.128 115.98 111.849 117.265 108.349 117.265Z" fill="white"/>
<path d="M150.731 147.108H134.03V144.54H148.162V130.412H150.731V147.108Z" fill="white"/>
<path d="M68.5095 79.0367H65.94V62.3398H82.6414V64.9086H68.5095V79.0367Z" fill="white"/>
</g>
<defs>
<clipPath id="clip0">
<rect width="364" height="471" fill="white"/>
</clipPath>
</defs>
</svg>
